<svg width="13" height="13" viewBox="0 0 13 13" fill="none" xmlns="http://www.w3.org/2000/svg">
<g clip-path="url(#clip0_11_2700)">
<path d="M11.7704 9.74999L7.43708 2.16666C7.34259 1.99993 7.20557 1.86126 7.03999 1.76478C6.87442 1.6683 6.68621 1.61746 6.49458 1.61746C6.30294 1.61746 6.11473 1.6683 5.94916 1.76478C5.78358 1.86126 5.64656 1.99993 5.55208 2.16666L1.21874 9.74999C1.12324 9.91539 1.07316 10.1031 1.07358 10.2941C1.074 10.4851 1.12491 10.6726 1.22115 10.8376C1.31739 11.0025 1.45553 11.1391 1.62158 11.2335C1.78762 11.3279 1.97567 11.3767 2.16666 11.375H10.8333C11.0234 11.3748 11.2101 11.3246 11.3746 11.2294C11.5391 11.1343 11.6757 10.9975 11.7707 10.8328C11.8656 10.6682 11.9156 10.4814 11.9155 10.2914C11.9155 10.1013 11.8654 9.9146 11.7704 9.74999Z" stroke="#FF6467" stroke-width="1.08333" stroke-linecap="round" stroke-linejoin="round"/>
<path d="M6.5 4.875V7.04167" stroke="#FF6467" stroke-width="1.08333" stroke-linecap="round" stroke-linejoin="round"/>
<path d="M6.5 9.20834H6.50542" stroke="#FF6467" stroke-width="1.08333" stroke-linecap="round" stroke-linejoin="round"/>
</g>
<defs>
<clipPath id="clip0_11_2700">
<rect width="13" height="13" fill="white"/>
</clipPath>
</defs>
</svg>
