<svg width="48" height="259" viewBox="0 0 48 259" fill="none" xmlns="http://www.w3.org/2000/svg">
<path d="M23.5607 129.96C23.9067 129.96 24.1873 129.679 24.1873 129.333C24.1873 128.987 23.9067 128.706 23.5607 128.706C23.2146 128.706 22.934 128.987 22.934 129.333C22.934 129.679 23.2146 129.96 23.5607 129.96Z" stroke="#717182" stroke-width="1.25" stroke-linecap="round" stroke-linejoin="round"/>
<path d="M27.9469 129.96C28.293 129.96 28.5736 129.679 28.5736 129.333C28.5736 128.987 28.293 128.706 27.9469 128.706C27.6009 128.706 27.3203 128.987 27.3203 129.333C27.3203 129.679 27.6009 129.96 27.9469 129.96Z" stroke="#717182" stroke-width="1.25" stroke-linecap="round" stroke-linejoin="round"/>
<path d="M19.1744 129.96C19.5204 129.96 19.801 129.679 19.801 129.333C19.801 128.987 19.5204 128.706 19.1744 128.706C18.8283 128.706 18.5477 128.987 18.5477 129.333C18.5477 129.679 18.8283 129.96 19.1744 129.96Z" stroke="#717182" stroke-width="1.25" stroke-linecap="round" stroke-linejoin="round"/>
</svg>
