<svg width="12" height="12" viewBox="0 0 12 12" fill="none" xmlns="http://www.w3.org/2000/svg">
<g clip-path="url(#clip0_140_6764)">
<path d="M10.5 3.75V3C10.5 2.73478 10.3946 2.48043 10.2071 2.29289C10.0196 2.10536 9.76522 2 9.5 2H2.5C2.23478 2 1.98043 2.10536 1.79289 2.29289C1.60536 2.48043 1.5 2.73478 1.5 3V10C1.5 10.2652 1.60536 10.5196 1.79289 10.7071C1.98043 10.8946 2.23478 11 2.5 11H4.25" stroke="#F54900" stroke-linecap="round" stroke-linejoin="round"/>
<path d="M8 1V3" stroke="#F54900" stroke-linecap="round" stroke-linejoin="round"/>
<path d="M4 1V3" stroke="#F54900" stroke-linecap="round" stroke-linejoin="round"/>
<path d="M1.5 5H4" stroke="#F54900" stroke-linecap="round" stroke-linejoin="round"/>
<path d="M8.75 8.75L8 8.15V7" stroke="#F54900" stroke-linecap="round" stroke-linejoin="round"/>
<path d="M8 11C9.65685 11 11 9.65685 11 8C11 6.34315 9.65685 5 8 5C6.34315 5 5 6.34315 5 8C5 9.65685 6.34315 11 8 11Z" stroke="#F54900" stroke-linecap="round" stroke-linejoin="round"/>
</g>
<defs>
<clipPath id="clip0_140_6764">
<rect width="12" height="12" fill="white"/>
</clipPath>
</defs>
</svg>
