<svg width="28" height="28" viewBox="0 0 28 28" fill="none" xmlns="http://www.w3.org/2000/svg">
<path d="M0 10C0 4.47715 4.47715 0 10 0H18C23.5228 0 28 4.47715 28 10V18C28 23.5228 23.5228 28 18 28H10C4.47715 28 0 23.5228 0 18V10Z" fill="#155DFC"/>
<path d="M14 11.5V9H11.5" stroke="white" stroke-width="1.25" stroke-linecap="round" stroke-linejoin="round"/>
<path d="M17.75 11.5H10.25C9.55964 11.5 9 12.0596 9 12.75V17.75C9 18.4404 9.55964 19 10.25 19H17.75C18.4404 19 19 18.4404 19 17.75V12.75C19 12.0596 18.4404 11.5 17.75 11.5Z" stroke="white" stroke-width="1.25" stroke-linecap="round" stroke-linejoin="round"/>
<path d="M7.75 15.25H9" stroke="white" stroke-width="1.25" stroke-linecap="round" stroke-linejoin="round"/>
<path d="M19 15.25H20.25" stroke="white" stroke-width="1.25" stroke-linecap="round" stroke-linejoin="round"/>
<path d="M15.875 14.625V15.875" stroke="white" stroke-width="1.25" stroke-linecap="round" stroke-linejoin="round"/>
<path d="M12.125 14.625V15.875" stroke="white" stroke-width="1.25" stroke-linecap="round" stroke-linejoin="round"/>
</svg>
