<svg width="14" height="14" viewBox="0 0 14 14" fill="none" xmlns="http://www.w3.org/2000/svg">
<g clip-path="url(#clip0_4_805)">
<path d="M7.12833 1.16666H6.87167C6.56225 1.16666 6.2655 1.28957 6.04671 1.50837C5.82792 1.72716 5.705 2.0239 5.705 2.33332V2.43832C5.70479 2.64291 5.65078 2.84385 5.5484 3.02098C5.44601 3.19811 5.29885 3.34519 5.12167 3.44749L4.87083 3.59332C4.69348 3.69572 4.49229 3.74963 4.2875 3.74963C4.08271 3.74963 3.88152 3.69572 3.70417 3.59332L3.61667 3.54666C3.34896 3.39223 3.03091 3.35033 2.73234 3.43017C2.43377 3.51001 2.17907 3.70505 2.02417 3.97249L1.89583 4.19416C1.7414 4.46187 1.69951 4.77992 1.77935 5.07849C1.85918 5.37706 2.05423 5.63175 2.32167 5.78666L2.40917 5.84499C2.5855 5.94679 2.73211 6.09296 2.83445 6.26897C2.93678 6.44499 2.99127 6.64472 2.9925 6.84832V7.14582C2.99332 7.3514 2.9398 7.55355 2.83736 7.73179C2.73492 7.91003 2.58721 8.05803 2.40917 8.16082L2.32167 8.21332C2.05423 8.36823 1.85918 8.62292 1.77935 8.92149C1.69951 9.22006 1.7414 9.53811 1.89583 9.80582L2.02417 10.0275C2.17907 10.2949 2.43377 10.49 2.73234 10.5698C3.03091 10.6496 3.34896 10.6078 3.61667 10.4533L3.70417 10.4067C3.88152 10.3043 4.08271 10.2504 4.2875 10.2504C4.49229 10.2504 4.69348 10.3043 4.87083 10.4067L5.12167 10.5525C5.29885 10.6548 5.44601 10.8019 5.5484 10.979C5.65078 11.1561 5.70479 11.3571 5.705 11.5617V11.6667C5.705 11.9761 5.82792 12.2728 6.04671 12.4916C6.2655 12.7104 6.56225 12.8333 6.87167 12.8333H7.12833C7.43775 12.8333 7.7345 12.7104 7.95329 12.4916C8.17208 12.2728 8.295 11.9761 8.295 11.6667V11.5617C8.29521 11.3571 8.34922 11.1561 8.4516 10.979C8.55399 10.8019 8.70115 10.6548 8.87833 10.5525L9.12917 10.4067C9.30652 10.3043 9.50771 10.2504 9.7125 10.2504C9.91729 10.2504 10.1185 10.3043 10.2958 10.4067L10.3833 10.4533C10.651 10.6078 10.9691 10.6496 11.2677 10.5698C11.5662 10.49 11.8209 10.2949 11.9758 10.0275L12.1042 9.79999C12.2586 9.53228 12.3005 9.21423 12.2207 8.91566C12.1408 8.61709 11.9458 8.36239 11.6783 8.20749L11.5908 8.16082C11.4128 8.05803 11.2651 7.91003 11.1626 7.73179C11.0602 7.55355 11.0067 7.3514 11.0075 7.14582V6.85416C11.0067 6.64858 11.0602 6.44643 11.1626 6.26819C11.2651 6.08995 11.4128 5.94194 11.5908 5.83916L11.6783 5.78666C11.9458 5.63175 12.1408 5.37706 12.2207 5.07849C12.3005 4.77992 12.2586 4.46187 12.1042 4.19416L11.9758 3.97249C11.8209 3.70505 11.5662 3.51001 11.2677 3.43017C10.9691 3.35033 10.651 3.39223 10.3833 3.54666L10.2958 3.59332C10.1185 3.69572 9.91729 3.74963 9.7125 3.74963C9.50771 3.74963 9.30652 3.69572 9.12917 3.59332L8.87833 3.44749C8.70115 3.34519 8.55399 3.19811 8.4516 3.02098C8.34922 2.84385 8.29521 2.64291 8.295 2.43832V2.33332C8.295 2.0239 8.17208 1.72716 7.95329 1.50837C7.7345 1.28957 7.43775 1.16666 7.12833 1.16666Z" stroke="#717182" stroke-width="1.16667" stroke-linecap="round" stroke-linejoin="round"/>
<path d="M7 8.75C7.9665 8.75 8.75 7.9665 8.75 7C8.75 6.0335 7.9665 5.25 7 5.25C6.0335 5.25 5.25 6.0335 5.25 7C5.25 7.9665 6.0335 8.75 7 8.75Z" stroke="#717182" stroke-width="1.16667" stroke-linecap="round" stroke-linejoin="round"/>
</g>
<defs>
<clipPath id="clip0_4_805">
<rect width="14" height="14" fill="white"/>
</clipPath>
</defs>
</svg>
