<svg width="11" height="11" viewBox="0 0 11 11" fill="none" xmlns="http://www.w3.org/2000/svg">
<g clip-path="url(#clip0_1_287)">
<path d="M2.75 8.70834V7.33334" stroke="#717182" stroke-width="0.916667" stroke-linecap="round" stroke-linejoin="round"/>
<path d="M4.58334 8.70834V7.33334" stroke="#717182" stroke-width="0.916667" stroke-linecap="round" stroke-linejoin="round"/>
<path d="M6.41666 8.70834V7.33334" stroke="#717182" stroke-width="0.916667" stroke-linecap="round" stroke-linejoin="round"/>
<path d="M8.25 8.70834V7.33334" stroke="#717182" stroke-width="0.916667" stroke-linecap="round" stroke-linejoin="round"/>
<path d="M3.66666 5.04167V4.125" stroke="#717182" stroke-width="0.916667" stroke-linecap="round" stroke-linejoin="round"/>
<path d="M7.33334 5.04167V4.125" stroke="#717182" stroke-width="0.916667" stroke-linecap="round" stroke-linejoin="round"/>
<path d="M5.5 5.04167V4.125" stroke="#717182" stroke-width="0.916667" stroke-linecap="round" stroke-linejoin="round"/>
<path d="M0.916656 6.875H10.0833" stroke="#717182" stroke-width="0.916667" stroke-linecap="round" stroke-linejoin="round"/>
<path d="M0.916656 3.20832C0.916656 2.96521 1.01323 2.73205 1.18514 2.56014C1.35705 2.38823 1.59021 2.29166 1.83332 2.29166H9.16666C9.40977 2.29166 9.64293 2.38823 9.81484 2.56014C9.98675 2.73205 10.0833 2.96521 10.0833 3.20832V3.71249C9.89347 3.76841 9.72681 3.88429 9.60827 4.04278C9.48973 4.20128 9.42567 4.39388 9.42567 4.5918C9.42567 4.78972 9.48973 4.98233 9.60827 5.14082C9.72681 5.29932 9.89347 5.41519 10.0833 5.47112V7.79166C10.0833 8.03477 9.98675 8.26793 9.81484 8.43984C9.64293 8.61175 9.40977 8.70832 9.16666 8.70832H1.83332C1.59021 8.70832 1.35705 8.61175 1.18514 8.43984C1.01323 8.26793 0.916656 8.03477 0.916656 7.79166V5.45416C1.10651 5.39823 1.27317 5.28236 1.39171 5.12387C1.51025 4.96537 1.57431 4.77277 1.57431 4.57484C1.57431 4.37692 1.51025 4.18432 1.39171 4.02582C1.27317 3.86733 1.10651 3.75146 0.916656 3.69553V3.20832Z" stroke="#717182" stroke-width="0.916667" stroke-linecap="round" stroke-linejoin="round"/>
</g>
<defs>
<clipPath id="clip0_1_287">
<rect width="11" height="11" fill="white"/>
</clipPath>
</defs>
</svg>
